<svg width="162" height="25" viewBox="0 0 162 25" fill="none" xmlns="http://www.w3.org/2000/svg">
<g id="SVG" clip-path="url(#clip0_1_4345)">
<path id="Vector" d="M150.75 3.07997H147.41V18.34H150.75V7.42997C151.205 6.77448 151.812 6.23912 152.519 5.86987C153.226 5.50061 154.012 5.30848 154.81 5.30997C157.11 5.30997 158.66 6.71997 158.66 9.00997V18.34H162V8.35997C162 5.10997 159.65 2.81997 156.04 2.81997C153.8 2.81997 151.94 3.74997 150.74 5.33997V3.07997H150.75ZM137.42 5.16997C139.78 5.16997 141.41 6.55997 141.92 9.03997H133.02C133.5 6.57997 135.14 5.16997 137.42 5.16997ZM137.48 18.65C141.18 18.65 143.9 16.69 144.89 13.45H141.61C141.31 14.2901 140.752 15.0137 140.015 15.5167C139.279 16.0198 138.402 16.2765 137.51 16.25C134.85 16.25 133.04 14.41 132.87 11.27H145.31V10.65C145.31 5.61997 141.87 2.79997 137.48 2.79997C132.88 2.79997 129.51 5.84997 129.51 10.73C129.51 15.57 132.83 18.65 137.48 18.65ZM119.62 5.16997C121.97 5.16997 123.61 6.55997 124.12 9.03997H115.22C115.69 6.57997 117.32 5.16997 119.62 5.16997ZM119.68 18.65C123.38 18.65 126.1 16.69 127.08 13.45H123.81C123.508 14.2884 122.949 15.0102 122.213 15.5128C121.477 16.0155 120.601 16.2734 119.71 16.25C117.05 16.25 115.24 14.41 115.07 11.27H127.51V10.65C127.51 5.61997 124.07 2.79997 119.68 2.79997C115.08 2.79997 111.71 5.84997 111.71 10.73C111.71 15.57 115.01 18.65 119.68 18.65ZM105.99 3.07997H102.65V18.34H106V7.90997C107 6.17997 109.1 5.50997 111.2 5.84997V2.79997C108.85 2.67997 107.1 3.69997 106 5.61997V3.07997H105.99ZM92.15 13.61C89.61 13.61 87.75 12.14 87.75 9.48997C87.75 6.74997 89.58 5.23997 92.15 5.23997C94.73 5.23997 96.56 6.73997 96.56 9.48997C96.56 12.14 94.69 13.61 92.16 13.61H92.15ZM88.05 18.34H84.85C85.64 22.01 88.75 23.74 92.95 23.74C97.13 23.74 99.93 21.82 99.93 18.9C99.93 16.61 98.26 15.57 95.72 14.86C96.9241 14.5605 97.987 13.8525 98.7274 12.8568C99.4678 11.8611 99.8398 10.6393 99.78 9.39997C99.78 7.92997 99.28 6.62997 98.4 5.57997C99.1382 5.4079 99.9037 5.38749 100.65 5.51997V2.69997C99.9475 2.64575 99.2421 2.75577 98.5895 3.02133C97.9369 3.28688 97.355 3.70068 96.89 4.22997C95.4699 3.31069 93.8116 2.82746 92.12 2.83997C87.68 2.83997 84.51 5.55997 84.51 9.39997C84.51 14.46 88.75 15.65 92.82 16.59C96.02 17.32 96.69 18.06 96.69 19.13C96.69 20.33 95.76 21.36 92.87 21.36C90.4 21.36 88.7 20.46 88.05 18.34ZM78.78 14.04V5.55997H83.59V3.07997H78.79V0.219971H75.48V3.07997H71.6V5.56997H75.47V14.65C75.47 17.19 76.82 18.47 80.22 18.47C81.24 18.47 82.32 18.35 83.58 18.02V15.59C82.48 15.87 81.63 15.95 80.95 15.95C79.05 15.95 78.77 15.25 78.77 14.04H78.78ZM63.37 5.16997C65.72 5.16997 67.35 6.55997 67.86 9.03997H58.96C59.44 6.57997 61.09 5.16997 63.36 5.16997H63.37ZM63.43 18.65C67.13 18.65 69.85 16.69 70.83 13.45H67.55C67.2516 14.291 66.6936 15.0154 65.9567 15.5187C65.2197 16.0219 64.3419 16.278 63.45 16.25C60.79 16.25 58.98 14.41 58.82 11.27H71.26V10.65C71.26 5.61997 67.81 2.79997 63.43 2.79997C58.82 2.79997 55.45 5.84997 55.45 10.73C55.45 15.57 58.77 18.65 63.43 18.65ZM45.57 5.16997C47.92 5.16997 49.55 6.55997 50.06 9.03997H41.16C41.64 6.57997 43.27 5.16997 45.56 5.16997H45.57ZM45.62 18.65C49.32 18.65 52.04 16.69 53.03 13.45H49.75C49.4489 14.2892 48.8903 15.0119 48.154 15.5148C47.4177 16.0176 46.5413 16.2749 45.65 16.25C42.99 16.25 41.18 14.41 41.01 11.27H53.46V10.65C53.46 5.61997 50.01 2.79997 45.62 2.79997C41.02 2.79997 37.65 5.84997 37.65 10.73C37.65 15.57 40.95 18.65 45.62 18.65ZM29.46 18.34H32.84L37.11 3.07997H34.03L31.11 14.38L27.81 3.07997H24.87L21.62 14.21L18.74 3.07997H15.46L19.76 18.34H23.14L26.28 7.30997L29.46 18.34ZM7.89 18.64C11.94 18.64 14.76 16.67 14.76 13.87C14.76 7.82997 3.45 10.45 3.45 6.99997C3.45 5.87997 4.63 5.08997 6.87 5.08997C9.3 5.08997 10.85 6.04997 11.44 8.14997H14.58C13.88 4.68997 11.08 2.75997 6.9 2.75997C2.78 2.75997 0.24 4.58997 0.24 7.35997C0.24 13.25 11.54 10.53 11.54 14.21C11.54 15.41 10.42 16.33 7.88 16.33C5.34 16.33 3.73 15.23 3.18 12.94H0C0.7 16.75 3.62 18.64 7.89 18.64Z" fill="#00473C"/>
</g>
<defs>
<clipPath id="clip0_1_4345">
<rect width="162" height="24" fill="white" transform="translate(0 0.219971)"/>
</clipPath>
</defs>
</svg>
